<svg xmlns="http://www.w3.org/2000/svg" viewBox="0 0 1000 1000" width="1000" height="1000" role="img">
  <defs>
    <filter id="g6">
      <feTurbulence type="fractalNoise" baseFrequency="0.8" numOctaves="3" seed="13"/>
      <feColorMatrix type="saturate" values="0"/>
    </filter>
  </defs>
  <rect width="1000" height="1000" fill="#EFE6E9"/>
  <circle cx="500" cy="500" r="300" fill="#8A5A6B" opacity="0.9"/><circle cx="100" cy="80" r="8" fill="#5E4450" opacity="0.55"/><circle cx="100" cy="185" r="8" fill="#5E4450" opacity="0.55"/><circle cx="100" cy="290" r="8" fill="#5E4450" opacity="0.55"/><circle cx="100" cy="395" r="8" fill="#5E4450" opacity="0.55"/><circle cx="100" cy="500" r="8" fill="#5E4450" opacity="0.55"/><circle cx="100" cy="605" r="8" fill="#5E4450" opacity="0.55"/><circle cx="100" cy="710" r="8" fill="#5E4450" opacity="0.55"/><circle cx="100" cy="815" r="8" fill="#5E4450" opacity="0.55"/><circle cx="100" cy="919.9999999999999" r="8" fill="#5E4450" opacity="0.55"/><circle cx="233.33333333333334" cy="80" r="8" fill="#5E4450" opacity="0.55"/><circle cx="233.33333333333334" cy="185" r="8" fill="#5E4450" opacity="0.55"/><circle cx="233.33333333333334" cy="290" r="8" fill="#5E4450" opacity="0.55"/><circle cx="233.33333333333334" cy="395" r="8" fill="#EFE6E9" opacity="0.9"/><circle cx="233.33333333333334" cy="500" r="8" fill="#EFE6E9" opacity="0.9"/><circle cx="233.33333333333334" cy="605" r="8" fill="#EFE6E9" opacity="0.9"/><circle cx="233.33333333333334" cy="710" r="8" fill="#5E4450" opacity="0.55"/><circle cx="233.33333333333334" cy="815" r="8" fill="#5E4450" opacity="0.55"/><circle cx="233.33333333333334" cy="919.9999999999999" r="8" fill="#5E4450" opacity="0.55"/><circle cx="366.6666666666667" cy="80" r="8" fill="#5E4450" opacity="0.55"/><circle cx="366.6666666666667" cy="185" r="8" fill="#5E4450" opacity="0.55"/><circle cx="366.6666666666667" cy="290" r="8" fill="#EFE6E9" opacity="0.9"/><circle cx="366.6666666666667" cy="395" r="8" fill="#EFE6E9" opacity="0.9"/><circle cx="366.6666666666667" cy="500" r="8" fill="#EFE6E9" opacity="0.9"/><circle cx="366.6666666666667" cy="605" r="8" fill="#EFE6E9" opacity="0.9"/><circle cx="366.6666666666667" cy="710" r="8" fill="#EFE6E9" opacity="0.9"/><circle cx="366.6666666666667" cy="815" r="8" fill="#5E4450" opacity="0.55"/><circle cx="366.6666666666667" cy="919.9999999999999" r="8" fill="#5E4450" opacity="0.55"/><circle cx="500" cy="80" r="8" fill="#5E4450" opacity="0.55"/><circle cx="500" cy="185" r="8" fill="#5E4450" opacity="0.55"/><circle cx="500" cy="290" r="8" fill="#EFE6E9" opacity="0.9"/><circle cx="500" cy="395" r="8" fill="#EFE6E9" opacity="0.9"/><circle cx="500" cy="500" r="8" fill="#EFE6E9" opacity="0.9"/><circle cx="500" cy="605" r="8" fill="#EFE6E9" opacity="0.9"/><circle cx="500" cy="710" r="8" fill="#EFE6E9" opacity="0.9"/><circle cx="500" cy="815" r="8" fill="#5E4450" opacity="0.55"/><circle cx="500" cy="919.9999999999999" r="8" fill="#5E4450" opacity="0.55"/><circle cx="633.3333333333333" cy="80" r="8" fill="#5E4450" opacity="0.55"/><circle cx="633.3333333333333" cy="185" r="8" fill="#5E4450" opacity="0.55"/><circle cx="633.3333333333333" cy="290" r="8" fill="#EFE6E9" opacity="0.9"/><circle cx="633.3333333333333" cy="395" r="8" fill="#EFE6E9" opacity="0.9"/><circle cx="633.3333333333333" cy="500" r="8" fill="#EFE6E9" opacity="0.9"/><circle cx="633.3333333333333" cy="605" r="8" fill="#EFE6E9" opacity="0.9"/><circle cx="633.3333333333333" cy="710" r="8" fill="#EFE6E9" opacity="0.9"/><circle cx="633.3333333333333" cy="815" r="8" fill="#5E4450" opacity="0.55"/><circle cx="633.3333333333333" cy="919.9999999999999" r="8" fill="#5E4450" opacity="0.55"/><circle cx="766.6666666666667" cy="80" r="8" fill="#5E4450" opacity="0.55"/><circle cx="766.6666666666667" cy="185" r="8" fill="#5E4450" opacity="0.55"/><circle cx="766.6666666666667" cy="290" r="8" fill="#5E4450" opacity="0.55"/><circle cx="766.6666666666667" cy="395" r="8" fill="#EFE6E9" opacity="0.9"/><circle cx="766.6666666666667" cy="500" r="8" fill="#EFE6E9" opacity="0.9"/><circle cx="766.6666666666667" cy="605" r="8" fill="#EFE6E9" opacity="0.9"/><circle cx="766.6666666666667" cy="710" r="8" fill="#5E4450" opacity="0.55"/><circle cx="766.6666666666667" cy="815" r="8" fill="#5E4450" opacity="0.55"/><circle cx="766.6666666666667" cy="919.9999999999999" r="8" fill="#5E4450" opacity="0.55"/><circle cx="900" cy="80" r="8" fill="#5E4450" opacity="0.55"/><circle cx="900" cy="185" r="8" fill="#5E4450" opacity="0.55"/><circle cx="900" cy="290" r="8" fill="#5E4450" opacity="0.55"/><circle cx="900" cy="395" r="8" fill="#5E4450" opacity="0.55"/><circle cx="900" cy="500" r="8" fill="#5E4450" opacity="0.55"/><circle cx="900" cy="605" r="8" fill="#5E4450" opacity="0.55"/><circle cx="900" cy="710" r="8" fill="#5E4450" opacity="0.55"/><circle cx="900" cy="815" r="8" fill="#5E4450" opacity="0.55"/><circle cx="900" cy="919.9999999999999" r="8" fill="#5E4450" opacity="0.55"/><circle cx="500" cy="500" r="300" fill="none" stroke="#2B2328" stroke-width="5" opacity="0.4"/>
  <rect width="1000" height="1000" filter="url(#g6)" opacity="0.06" style="mix-blend-mode:multiply"/>
</svg>
